<svg width="45" height="40" viewBox="0 0 45 40" fill="none" xmlns="http://www.w3.org/2000/svg">
<path d="M22.5004 8.98498L5.42802 24.0402C5.30146 24.1542 5.13975 24.2073 5.00069 24.3019V38.75C5.00069 39.0815 5.13238 39.3995 5.3668 39.6339C5.60121 39.8683 5.91915 40 6.25066 40H38.7501C39.0816 40 39.3995 39.8683 39.6339 39.6339C39.8684 39.3995 40 39.0815 40 38.75V24.305C39.8672 24.2144 39.7094 24.1628 39.5891 24.055L22.5004 8.98498ZM30.0002 29.3752C30.0002 29.541 29.9344 29.6999 29.8172 29.8171C29.7 29.9343 29.541 30.0002 29.3752 30.0002H25.0003V34.3751C25.0003 34.5409 24.9345 34.6998 24.8173 34.817C24.7001 34.9342 24.5411 35.0001 24.3753 35.0001H20.6254C20.4596 35.0001 20.3007 34.9342 20.1835 34.817C20.0663 34.6998 20.0004 34.5409 20.0004 34.3751V30.0002H15.6255C15.4597 30.0002 15.3008 29.9343 15.1836 29.8171C15.0663 29.6999 15.0005 29.541 15.0005 29.3752V25.6253C15.0005 25.4595 15.0663 25.3006 15.1836 25.1833C15.3008 25.0661 15.4597 25.0003 15.6255 25.0003H20.0004V20.6254C20.0004 20.4596 20.0663 20.3006 20.1835 20.1834C20.3007 20.0662 20.4596 20.0004 20.6254 20.0004H24.3753C24.5411 20.0004 24.7001 20.0662 24.8173 20.1834C24.9345 20.3006 25.0003 20.4596 25.0003 20.6254V25.0003H29.3752C29.541 25.0003 29.7 25.0661 29.8172 25.1833C29.9344 25.3006 30.0002 25.4595 30.0002 25.6253V29.3752ZM44.5851 18.4598L24.5902 0.803886C24.0179 0.286476 23.2738 0 22.5023 0C21.7308 0 20.9868 0.286476 20.4145 0.803886L0.414832 18.4598C0.292663 18.5695 0.193305 18.7022 0.122433 18.8503C0.0515621 18.9984 0.0105662 19.159 0.00178776 19.323C-0.00699066 19.487 0.0166204 19.651 0.0712721 19.8059C0.125924 19.9607 0.210545 20.1033 0.320302 20.2254L1.99293 22.0863C2.10263 22.2085 2.23533 22.3078 2.38344 22.3787C2.53156 22.4496 2.69218 22.4906 2.85614 22.4993C3.0201 22.5081 3.18419 22.4845 3.33902 22.4298C3.49385 22.3752 3.6364 22.2906 3.75852 22.1808L21.6738 6.378C21.9022 6.17653 22.1962 6.06537 22.5008 6.06537C22.8053 6.06537 23.0993 6.17653 23.3277 6.378L41.243 22.18C41.3651 22.2898 41.5077 22.3744 41.6625 22.4291C41.8173 22.4837 41.9814 22.5073 42.1454 22.4985C42.3093 22.4898 42.47 22.4488 42.6181 22.3779C42.7662 22.307 42.8989 22.2077 43.0086 22.0855L44.6804 20.2246C44.9018 19.9779 45.0161 19.6534 44.9982 19.3225C44.9803 18.9915 44.8317 18.6812 44.5851 18.4598Z" fill="#FF8A5B"/>
</svg>
