<svg width="62" height="71" viewBox="0 0 62 71" fill="none" xmlns="http://www.w3.org/2000/svg">
<path d="M0 64.3438C0 68.0186 2.97545 71 6.64286 71H55.3571C59.0246 71 62 68.0186 62 64.3438V26.625H0V64.3438ZM44.2857 37.1641C44.2857 36.2488 45.033 35.5 45.9464 35.5H51.4821C52.3955 35.5 53.1429 36.2488 53.1429 37.1641V42.7109C53.1429 43.6262 52.3955 44.375 51.4821 44.375H45.9464C45.033 44.375 44.2857 43.6262 44.2857 42.7109V37.1641ZM44.2857 54.9141C44.2857 53.9988 45.033 53.25 45.9464 53.25H51.4821C52.3955 53.25 53.1429 53.9988 53.1429 54.9141V60.4609C53.1429 61.3762 52.3955 62.125 51.4821 62.125H45.9464C45.033 62.125 44.2857 61.3762 44.2857 60.4609V54.9141ZM26.5714 37.1641C26.5714 36.2488 27.3187 35.5 28.2321 35.5H33.7679C34.6812 35.5 35.4286 36.2488 35.4286 37.1641V42.7109C35.4286 43.6262 34.6812 44.375 33.7679 44.375H28.2321C27.3187 44.375 26.5714 43.6262 26.5714 42.7109V37.1641ZM26.5714 54.9141C26.5714 53.9988 27.3187 53.25 28.2321 53.25H33.7679C34.6812 53.25 35.4286 53.9988 35.4286 54.9141V60.4609C35.4286 61.3762 34.6812 62.125 33.7679 62.125H28.2321C27.3187 62.125 26.5714 61.3762 26.5714 60.4609V54.9141ZM8.85714 37.1641C8.85714 36.2488 9.60446 35.5 10.5179 35.5H16.0536C16.967 35.5 17.7143 36.2488 17.7143 37.1641V42.7109C17.7143 43.6262 16.967 44.375 16.0536 44.375H10.5179C9.60446 44.375 8.85714 43.6262 8.85714 42.7109V37.1641ZM8.85714 54.9141C8.85714 53.9988 9.60446 53.25 10.5179 53.25H16.0536C16.967 53.25 17.7143 53.9988 17.7143 54.9141V60.4609C17.7143 61.3762 16.967 62.125 16.0536 62.125H10.5179C9.60446 62.125 8.85714 61.3762 8.85714 60.4609V54.9141ZM55.3571 8.875H48.7143V2.21875C48.7143 0.998437 47.7179 0 46.5 0H42.0714C40.8536 0 39.8571 0.998437 39.8571 2.21875V8.875H22.1429V2.21875C22.1429 0.998437 21.1464 0 19.9286 0H15.5C14.2821 0 13.2857 0.998437 13.2857 2.21875V8.875H6.64286C2.97545 8.875 0 11.8564 0 15.5312V22.1875H62V15.5312C62 11.8564 59.0246 8.875 55.3571 8.875Z" fill="black"/>
</svg>
