<svg width="62" height="71" viewBox="0 0 62 71" fill="none" xmlns="http://www.w3.org/2000/svg">
<path d="M31 35.5C40.7844 35.5 48.7143 27.5541 48.7143 17.75C48.7143 7.9459 40.7844 0 31 0C21.2156 0 13.2857 7.9459 13.2857 17.75C13.2857 27.5541 21.2156 35.5 31 35.5ZM14.3929 58.7969C14.3929 60.6412 15.8737 62.125 17.7143 62.125C19.5549 62.125 21.0357 60.6412 21.0357 58.7969C21.0357 56.9525 19.5549 55.4688 17.7143 55.4688C15.8737 55.4688 14.3929 56.9525 14.3929 58.7969ZM44.2857 40.0207V46.8156C49.3371 47.8418 53.1429 52.3348 53.1429 57.6875V63.4701C53.1429 64.524 52.3955 65.4393 51.3576 65.6473L46.9013 66.5348C46.3062 66.6596 45.725 66.2713 45.6004 65.6611L45.1714 63.484C45.0469 62.8877 45.4344 62.2914 46.0433 62.1805L48.7143 61.6396V57.6875C48.7143 48.9789 35.4286 48.66 35.4286 57.951V61.6535L38.0995 62.1943C38.6946 62.3191 39.0821 62.9016 38.9714 63.4979L38.5424 65.675C38.4179 66.2713 37.8366 66.6596 37.2415 66.5486L32.9237 65.9662C31.8304 65.8137 31.0138 64.8846 31.0138 63.7613V57.6875C31.0138 52.3348 34.8196 47.8557 39.871 46.8156V40.5477C39.5665 40.6447 39.2621 40.7002 38.9576 40.8111C36.4665 41.6848 33.7955 42.1701 31.0138 42.1701C28.2321 42.1701 25.5612 41.6848 23.0701 40.8111C22.046 40.4506 21.008 40.2287 19.9424 40.09V51.4057C23.1393 52.3625 25.4781 55.3023 25.4781 58.8107C25.4781 63.0957 22.0045 66.5764 17.7281 66.5764C13.4518 66.5764 9.97812 63.0957 9.97812 58.8107C9.97812 55.3023 12.317 52.3625 15.5138 51.4057V40.2564C6.71205 41.7402 0 49.3395 0 58.575V64.7875C0 68.2127 2.7817 71 6.2 71H55.8C59.2183 71 62 68.2127 62 64.7875V58.575C62 48.5906 54.1393 40.5061 44.2857 40.0207Z" fill="black"/>
</svg>
