<svg width="74" height="71" viewBox="0 0 74 71" fill="none" xmlns="http://www.w3.org/2000/svg">
<path d="M37 39.9375C48.4902 39.9375 57.8125 30.9932 57.8125 19.9688C57.8125 8.94434 48.4902 0 37 0C25.5098 0 16.1875 8.94434 16.1875 19.9688C16.1875 30.9932 25.5098 39.9375 37 39.9375ZM55.5 44.375H47.5363C44.3277 45.7895 40.7578 46.5938 37 46.5938C33.2422 46.5938 29.6867 45.7895 26.4637 44.375H18.5C8.28164 44.375 0 52.3209 0 62.125V64.3438C0 68.0186 3.10742 71 6.9375 71H67.0625C70.8926 71 74 68.0186 74 64.3438V62.125C74 52.3209 65.7184 44.375 55.5 44.375Z" fill="black"/>
</svg>
