<svg width="62" height="71" viewBox="0 0 62 71" fill="none" xmlns="http://www.w3.org/2000/svg">
<path d="M60.3393 22.1875H1.66071C0.747321 22.1875 0 21.4387 0 20.5234V15.5313C0 11.8564 2.97545 8.875 6.64286 8.875H13.2857V1.66406C13.2857 0.748828 14.033 0 14.9464 0H20.4821C21.3955 0 22.1429 0.748828 22.1429 1.66406V8.875H39.8571V1.66406C39.8571 0.748828 40.6045 0 41.5179 0H47.0536C47.967 0 48.7143 0.748828 48.7143 1.66406V8.875H55.3571C59.0246 8.875 62 11.8564 62 15.5313V20.5234C62 21.4387 61.2527 22.1875 60.3393 22.1875ZM1.66071 26.625H60.3393C61.2527 26.625 62 27.3738 62 28.2891V64.3438C62 68.0186 59.0246 71 55.3571 71H6.64286C2.97545 71 0 68.0186 0 64.3438V28.2891C0 27.3738 0.747321 26.625 1.66071 26.625ZM45.3929 46.0391C45.3929 45.1238 44.6455 44.375 43.7321 44.375H35.4286V36.0547C35.4286 35.1395 34.6812 34.3906 33.7679 34.3906H28.2321C27.3188 34.3906 26.5714 35.1395 26.5714 36.0547V44.375H18.2679C17.3545 44.375 16.6071 45.1238 16.6071 46.0391V51.5859C16.6071 52.5012 17.3545 53.25 18.2679 53.25H26.5714V61.5703C26.5714 62.4855 27.3188 63.2344 28.2321 63.2344H33.7679C34.6812 63.2344 35.4286 62.4855 35.4286 61.5703V53.25H43.7321C44.6455 53.25 45.3929 52.5012 45.3929 51.5859V46.0391Z" fill="black"/>
</svg>
