<svg width="89" height="71" viewBox="0 0 89 71" fill="none" xmlns="http://www.w3.org/2000/svg">
<path d="M68.975 31.0625C57.9056 31.0625 48.95 39.993 48.95 51.0312C48.95 62.0695 57.9056 71 68.975 71C80.0444 71 89 62.0695 89 51.0312C89 39.993 80.0444 31.0625 68.975 31.0625ZM77.875 51.9049C77.875 52.6398 77.2631 53.25 76.5261 53.25H68.0989C67.3619 53.25 66.75 52.6398 66.75 51.9049V41.2826C66.75 40.5477 67.3619 39.9375 68.0989 39.9375H69.8511C70.5881 39.9375 71.2 40.5477 71.2 41.2826V48.8125H76.5261C77.2631 48.8125 77.875 49.4227 77.875 50.1576V51.9049ZM44.5 51.0312C44.5 47.1762 45.4317 43.5291 47.0309 40.2842C45.9184 40.0762 44.7781 39.9375 43.61 39.9375H41.2877C38.2005 41.352 34.7656 42.1562 31.15 42.1562C27.5344 42.1562 24.1134 41.352 21.0123 39.9375H18.69C8.37156 39.9375 0 48.2855 0 58.575V64.3438C0 68.0186 2.98984 71 6.675 71H54.9436C48.6441 66.5764 44.5 59.2822 44.5 51.0312ZM31.15 35.5C40.9817 35.5 48.95 27.5541 48.95 17.75C48.95 7.9459 40.9817 0 31.15 0C21.3183 0 13.35 7.9459 13.35 17.75C13.35 27.5541 21.3183 35.5 31.15 35.5Z" fill="black"/>
</svg>
